<svg xmlns="http://www.w3.org/2000/svg" width="960" height="720" viewBox="0 0 960 720" fill="none"><defs><linearGradient id="bg" x1="0" y1="0" x2="1" y2="1"><stop stop-color="#EEF2FF"/><stop offset="1" stop-color="#FAF5FF"/></linearGradient><linearGradient id="grad" x1="0" y1="0" x2="1" y2="1"><stop stop-color="#7C3AED"/><stop offset="1" stop-color="#C084FC"/></linearGradient></defs><rect width="960" height="720" rx="24" fill="url(#bg)"/><rect x="48" y="56" width="864" height="80" rx="12" fill="#fff"/><circle cx="88" cy="96" r="8" fill="#22C55E"/><circle cx="112" cy="96" r="8" fill="#F59E0B"/><circle cx="136" cy="96" r="8" fill="#EF4444"/><rect x="72" y="168" width="816" height="480" rx="16" fill="#fff"/><rect x="96" y="192" width="360" height="16" rx="8" fill="#0F172A" opacity=".15"/><rect x="96" y="220" width="280" height="10" rx="5" fill="#0F172A" opacity=".12"/><rect x="96" y="260" width="320" height="220" rx="12" fill="#F1F5F9"/><rect x="456" y="260" width="376" height="220" rx="12" fill="#F8FAFC"/><rect x="480" y="280" width="160" height="16" rx="8" fill="#0F172A" opacity=".15"/><rect x="480" y="308" width="240" height="10" rx="5" fill="#0F172A" opacity=".12"/><rect x="480" y="352" width="120" height="40" rx="10" fill="url(#grad)"/><rect x="616" y="352" width="120" height="40" rx="10" fill="#fff" stroke="#E2E8F0"/><rect x="96" y="500" width="736" height="20" rx="10" fill="#0F172A" opacity=".08"/></svg>